# xmcd CD database file
#
# Track frame offsets:
#	150
#	15308
#	30625
#	45210
#	61409
#	75369
#	89732
#	104528
#	119123
#	133550
#	147065
#	159716
#	173406
#	186684
#	200809
#	214691
#	230153
#	243693
#	257236
#	270541
#
# Disc length: 3770 seconds
#
# Revision: 0
# Processed by: cddbd v1.5.2PL0 Copyright (c) Steve Scherf et al.
# Submitted via: CDex 1.51
#
DISCID=240eb814
DTITLE=Bix Beiderbecke - The Absolutely Essential CD3
DYEAR=2015
DGENRE=Jazz
TTITLE0=Jubilee
TTITLE1=San
TTITLE2=Mississippi Mud
TTITLE3=There Ain't No Sweet Man That's Worth The Salt Of My Tears
TTITLE4=Dardanella
TTITLE5=Love Nest
TTITLE6=Sugar
TTITLE7=Borneo
TTITLE8=My Pet
TTITLE9=Somebody Stole My Gal
TTITLE10=Thou Swell
TTITLE11=Louisiana
TTITLE12=You Took Advantage Of Me
TTITLE13=Ol' Man River
TTITLE14=Wa-Da- Da (Everybody's Doing It Now)
TTITLE15=Rhythm King
TTITLE16=Margie
TTITLE17=Raisin' Tha' Roof
TTITLE18=Louise
TTITLE19=China Boy
EXTD=YEAR: 2015
EXTT0=
EXTT1=
EXTT2=
EXTT3=
EXTT4=
EXTT5=
EXTT6=
EXTT7=
EXTT8=
EXTT9=
EXTT10=
EXTT11=
EXTT12=
EXTT13=
EXTT14=
EXTT15=
EXTT16=
EXTT17=
EXTT18=
EXTT19=
PLAYORDER=
